<svg width="16" height="16" viewBox="0 0 16 16" fill="none" xmlns="http://www.w3.org/2000/svg">
<path d="M16 8C16 12.4183 12.4183 16 8 16C3.58172 16 0 12.4183 0 8C0 3.58172 3.58172 0 8 0C12.4183 0 16 3.58172 16 8Z" fill="url(#paint0_linear_28_67)"/>
<path d="M11.552 4.9775C11.6032 4.92527 11.6643 4.88379 11.7317 4.85546C11.7991 4.82714 11.8715 4.81255 11.9446 4.81255C12.0178 4.81255 12.0901 4.82714 12.1576 4.85546C12.225 4.88379 12.2861 4.92527 12.3372 4.9775C12.5517 5.19425 12.5548 5.5445 12.3448 5.765L7.91 11.0075C7.85965 11.0628 7.79855 11.1072 7.73043 11.1381C7.66232 11.169 7.58862 11.1856 7.51385 11.187C7.43909 11.1884 7.36482 11.1745 7.29559 11.1463C7.22637 11.118 7.16364 11.0759 7.11125 11.0225L4.41275 8.288C4.30868 8.18186 4.25038 8.03915 4.25038 7.8905C4.25038 7.74185 4.30868 7.59914 4.41275 7.493C4.46393 7.44077 4.52502 7.39929 4.59244 7.37096C4.65986 7.34264 4.73225 7.32805 4.80538 7.32805C4.8785 7.32805 4.95089 7.34264 5.01831 7.37096C5.08573 7.39929 5.14682 7.44077 5.198 7.493L7.487 9.81275L11.537 4.994L11.552 4.9775Z" fill="white"/>
<defs>
<linearGradient id="paint0_linear_28_67" x1="0" y1="8" x2="16" y2="8" gradientUnits="userSpaceOnUse">
<stop stop-color="#3F42F2"/>
<stop offset="1" stop-color="#7E14FF"/>
</linearGradient>
</defs>
</svg>
